<svg width="288" height="109" viewBox="0 0 288 109" fill="none" xmlns="http://www.w3.org/2000/svg">
<path d="M37.616 90.512C39.92 90.512 42.056 90.08 44.024 89.216C46.04 88.352 47.768 87.176 49.208 85.688C50.648 84.152 51.776 82.376 52.592 80.36C53.456 78.296 53.888 76.064 53.888 73.664C53.888 70.976 53.48 68.576 52.664 66.464C51.896 64.352 50.792 62.576 49.352 61.136C47.912 59.696 46.16 58.592 44.096 57.824C42.08 57.056 39.824 56.672 37.328 56.672C35.072 56.672 33.008 57.08 31.136 57.896C29.264 58.664 27.632 59.792 26.24 61.28C24.896 62.768 23.84 64.544 23.072 66.608C22.304 68.672 21.92 71 21.92 73.592C21.92 76.184 22.232 78.512 22.856 80.576C23.48 82.64 24.44 84.416 25.736 85.904C27.032 87.392 28.664 88.544 30.632 89.36C32.6 90.128 34.928 90.512 37.616 90.512ZM34.016 42.416C37.376 41.168 41.12 40.544 45.248 40.544C49.04 40.544 52.784 41.168 56.48 42.416C60.176 43.664 63.488 45.584 66.416 48.176C69.344 50.768 71.696 54.056 73.472 58.04C75.296 61.976 76.208 66.632 76.208 72.008C76.208 76.904 75.296 81.56 73.472 85.976C71.648 90.344 69.056 94.184 65.696 97.496C62.384 100.76 58.376 103.352 53.672 105.272C48.968 107.192 43.76 108.152 38.048 108.152C32.192 108.152 26.936 107.24 22.28 105.416C17.624 103.544 13.664 100.952 10.4 97.64C7.184 94.328 4.712 90.368 2.984 85.76C1.304 81.152 0.464 76.088 0.464 70.568C0.464 60.248 4.448 49.76 12.416 39.104L36.032 7.208C37.136 5.816 38.72 4.61599 40.784 3.60799C42.896 2.6 45.296 2.096 47.984 2.096H67.856L36.752 39.248L34.016 42.416ZM90.1873 32.048C90.9552 26.816 92.4192 22.256 94.5792 18.368C96.7873 14.48 99.4993 11.24 102.715 8.648C105.979 6.05599 109.699 4.13599 113.875 2.88799C118.051 1.592 122.539 0.943996 127.339 0.943996C132.523 0.943996 137.131 1.688 141.163 3.176C145.195 4.616 148.603 6.584 151.387 9.08C154.171 11.576 156.283 14.48 157.723 17.792C159.163 21.056 159.883 24.512 159.883 28.16C159.883 31.472 159.547 34.4 158.875 36.944C158.203 39.44 157.195 41.624 155.851 43.496C154.555 45.32 152.923 46.88 150.955 48.176C149.035 49.424 146.827 50.48 144.331 51.344C155.947 55.424 161.755 63.344 161.755 75.104C161.755 80.672 160.747 85.52 158.731 89.648C156.715 93.776 154.003 97.208 150.595 99.944C147.235 102.68 143.323 104.744 138.859 106.136C134.395 107.48 129.739 108.152 124.891 108.152C119.899 108.152 115.459 107.624 111.571 106.568C107.683 105.464 104.227 103.784 101.203 101.528C98.1793 99.224 95.5153 96.296 93.2113 92.744C90.9553 89.192 88.9872 84.968 87.3072 80.072L97.2433 76.04C99.8353 75.032 102.235 74.768 104.443 75.248C106.651 75.728 108.235 76.832 109.195 78.56C111.355 82.544 113.635 85.448 116.035 87.272C118.483 89.048 121.339 89.936 124.603 89.936C127.099 89.936 129.259 89.528 131.083 88.712C132.955 87.848 134.491 86.768 135.691 85.472C136.939 84.128 137.875 82.616 138.499 80.936C139.123 79.256 139.435 77.552 139.435 75.824C139.435 73.568 139.267 71.552 138.931 69.776C138.643 67.952 137.779 66.392 136.339 65.096C134.899 63.8 132.715 62.816 129.787 62.144C126.907 61.424 122.875 61.064 117.691 61.064V45.656C122.059 45.656 125.587 45.32 128.275 44.648C130.963 43.976 133.027 43.064 134.467 41.912C135.955 40.712 136.939 39.272 137.419 37.592C137.899 35.912 138.139 34.064 138.139 32.048C138.139 27.92 137.131 24.752 135.115 22.544C133.147 20.288 130.123 19.16 126.043 19.16C122.731 19.16 119.923 20.048 117.619 21.824C115.363 23.552 113.803 25.712 112.939 28.304C111.931 30.944 110.611 32.696 108.979 33.56C107.347 34.424 105.019 34.616 101.995 34.136L90.1873 32.048ZM226.855 27.512C226.855 31.352 226.159 34.856 224.767 38.024C223.375 41.192 221.527 43.928 219.223 46.232C216.919 48.488 214.231 50.24 211.159 51.488C208.135 52.736 204.967 53.36 201.655 53.36C198.006 53.36 194.647 52.736 191.575 51.488C188.551 50.24 185.911 48.488 183.655 46.232C181.446 43.928 179.718 41.192 178.47 38.024C177.222 34.856 176.598 31.352 176.598 27.512C176.598 23.528 177.222 19.928 178.47 16.712C179.718 13.448 181.446 10.664 183.655 8.35999C185.911 6.05599 188.551 4.27999 191.575 3.03199C194.647 1.73599 198.006 1.08799 201.655 1.08799C205.303 1.08799 208.663 1.73599 211.735 3.03199C214.855 4.27999 217.519 6.05599 219.727 8.35999C221.983 10.664 223.735 13.448 224.983 16.712C226.231 19.928 226.855 23.528 226.855 27.512ZM209.718 27.512C209.718 25.064 209.503 23.048 209.071 21.464C208.687 19.832 208.135 18.536 207.415 17.576C206.695 16.616 205.831 15.944 204.822 15.56C203.863 15.176 202.807 14.984 201.655 14.984C200.503 14.984 199.447 15.176 198.487 15.56C197.527 15.944 196.711 16.616 196.039 17.576C195.367 18.536 194.838 19.832 194.455 21.464C194.071 23.048 193.879 25.064 193.879 27.512C193.879 29.816 194.071 31.736 194.455 33.272C194.838 34.808 195.367 36.032 196.039 36.944C196.711 37.856 197.527 38.504 198.487 38.888C199.447 39.272 200.503 39.464 201.655 39.464C202.807 39.464 203.863 39.272 204.822 38.888C205.831 38.504 206.695 37.856 207.415 36.944C208.135 36.032 208.687 34.808 209.071 33.272C209.503 31.736 209.718 29.816 209.718 27.512ZM259.831 5.408C260.551 4.592 261.439 3.84799 262.495 3.176C263.551 2.456 265.015 2.096 266.887 2.096H283.159L204.103 103.832C203.383 104.744 202.471 105.512 201.367 106.136C200.311 106.712 199.015 107 197.479 107H180.774L259.831 5.408ZM287.191 82.376C287.191 86.216 286.495 89.744 285.103 92.96C283.711 96.128 281.863 98.864 279.559 101.168C277.255 103.424 274.567 105.176 271.495 106.424C268.471 107.672 265.303 108.296 261.991 108.296C258.343 108.296 254.983 107.672 251.911 106.424C248.887 105.176 246.247 103.424 243.991 101.168C241.783 98.864 240.055 96.128 238.807 92.96C237.559 89.744 236.935 86.216 236.935 82.376C236.935 78.392 237.559 74.792 238.807 71.576C240.055 68.312 241.783 65.528 243.991 63.224C246.247 60.92 248.887 59.144 251.911 57.896C254.983 56.6 258.343 55.952 261.991 55.952C265.639 55.952 268.999 56.6 272.071 57.896C275.191 59.144 277.855 60.92 280.063 63.224C282.319 65.528 284.071 68.312 285.319 71.576C286.567 74.792 287.191 78.392 287.191 82.376ZM270.055 82.376C270.055 79.976 269.839 77.984 269.407 76.4C269.023 74.768 268.471 73.472 267.751 72.512C267.031 71.552 266.167 70.88 265.159 70.496C264.199 70.112 263.143 69.92 261.991 69.92C260.839 69.92 259.783 70.112 258.823 70.496C257.863 70.88 257.047 71.552 256.374 72.512C255.703 73.472 255.175 74.768 254.791 76.4C254.407 77.984 254.215 79.976 254.215 82.376C254.215 84.68 254.407 86.6 254.791 88.136C255.175 89.672 255.703 90.896 256.374 91.808C257.047 92.72 257.863 93.368 258.823 93.752C259.783 94.136 260.839 94.328 261.991 94.328C263.143 94.328 264.199 94.136 265.159 93.752C266.167 93.368 267.031 92.72 267.751 91.808C268.471 90.896 269.023 89.672 269.407 88.136C269.839 86.6 270.055 84.68 270.055 82.376Z" fill="#FDF7F2"/>
<path d="M44.024 89.216L43.6301 88.2968L43.622 88.3004L44.024 89.216ZM49.208 85.688L49.9266 86.3834L49.9321 86.3777L49.9375 86.3719L49.208 85.688ZM52.592 80.36L51.6695 79.9738L51.6651 79.9848L52.592 80.36ZM52.664 66.464L51.7242 66.8057L51.7276 66.8151L51.7312 66.8244L52.664 66.464ZM44.096 57.824L43.74 58.7585L43.7473 58.7612L44.096 57.824ZM31.136 57.896L31.5156 58.8212L31.5256 58.817L31.5356 58.8127L31.136 57.896ZM26.24 61.28L25.5097 60.5968L25.5038 60.6032L25.4979 60.6097L26.24 61.28ZM23.072 66.608L22.1348 66.2593L23.072 66.608ZM22.856 80.576L23.8132 80.2866V80.2866L22.856 80.576ZM30.632 89.36L30.249 90.2837L30.2587 90.2878L30.2685 90.2916L30.632 89.36ZM34.016 42.416L33.2592 41.7624L34.3642 43.3534L34.016 42.416ZM56.48 42.416L56.1601 43.3634H56.1601L56.48 42.416ZM73.472 58.04L72.5586 58.4472L72.5616 58.4538L72.5647 58.4605L73.472 58.04ZM73.472 85.976L74.3948 86.3613L74.3963 86.3578L73.472 85.976ZM65.696 97.496L66.3979 98.2083L66.398 98.2082L65.696 97.496ZM53.672 105.272L54.0499 106.198L53.672 105.272ZM22.28 105.416L21.9069 106.344L21.9152 106.347L22.28 105.416ZM10.4 97.64L9.68255 98.3367L9.68775 98.3419L10.4 97.64ZM2.984 85.76L2.04445 86.1025L2.04767 86.1111L2.984 85.76ZM12.416 39.104L13.2169 39.7029L13.2197 39.6991L12.416 39.104ZM36.032 7.208L35.2485 6.5866L35.2382 6.59961L35.2283 6.61294L36.032 7.208ZM40.784 3.60799L40.3533 2.70547L40.3452 2.70942L40.784 3.60799ZM67.856 2.096L68.6228 2.73793L69.9974 1.096H67.856V2.096ZM36.752 39.248L37.5088 39.9016L37.5138 39.8958L37.5188 39.8899L36.752 39.248ZM37.616 91.512C40.0483 91.512 42.3223 91.0552 44.426 90.1316L43.622 88.3004C41.7897 89.1048 39.7917 89.512 37.616 89.512V91.512ZM44.4179 90.1351C46.5486 89.222 48.3889 87.9724 49.9266 86.3834L48.4894 84.9926C47.1471 86.3796 45.5314 87.482 43.6301 88.2969L44.4179 90.1351ZM49.9375 86.3719C51.4646 84.7431 52.6583 82.8616 53.5189 80.7352L51.6651 79.9848C50.8937 81.8904 49.8314 83.5609 48.4785 85.0041L49.9375 86.3719ZM53.5144 80.7461C54.4333 78.5512 54.888 76.1868 54.888 73.664H52.888C52.888 75.9412 52.4787 78.0408 51.6696 79.9739L53.5144 80.7461ZM54.888 73.664C54.888 70.8753 54.4647 68.3499 53.5968 66.1036L51.7312 66.8244C52.4953 68.8021 52.888 71.0767 52.888 73.664H54.888ZM53.6038 66.1223C52.7911 63.8873 51.6127 61.9825 50.0591 60.4289L48.6449 61.8431C49.9713 63.1695 51.0009 64.8167 51.7242 66.8057L53.6038 66.1223ZM50.0591 60.4289C48.5095 58.8793 46.6322 57.7007 44.4447 56.8868L43.7473 58.7612C45.6878 59.4833 47.3145 60.5127 48.6449 61.8431L50.0591 60.4289ZM44.452 56.8895C42.306 56.072 39.9268 55.672 37.328 55.672V57.672C39.7212 57.672 41.854 58.04 43.74 58.7585L44.452 56.8895ZM37.328 55.672C34.949 55.672 32.7471 56.1029 30.7364 56.9793L31.5356 58.8127C33.2689 58.0571 35.195 57.672 37.328 57.672V55.672ZM30.7564 56.9708C28.7506 57.7938 26.9992 59.0047 25.5097 60.5968L26.9703 61.9632C28.2648 60.5793 29.7775 59.5342 31.5156 58.8212L30.7564 56.9708ZM25.4979 60.6097C24.0611 62.2004 22.9425 64.0884 22.1348 66.2593L24.0092 66.9567C24.7375 64.9996 25.7309 63.3356 26.9821 61.9503L25.4979 60.6097ZM22.1348 66.2593C21.3186 68.4527 20.92 70.9016 20.92 73.592H22.92C22.92 71.0984 23.2894 68.8913 24.0092 66.9567L22.1348 66.2593ZM20.92 73.592C20.92 76.2629 21.2414 78.6908 21.8988 80.8654L23.8132 80.2866C23.2226 78.3332 22.92 76.1051 22.92 73.592H20.92ZM21.8988 80.8654C22.5599 83.0522 23.5846 84.9565 24.9819 86.5608L26.4901 85.2472C25.2954 83.8755 24.4001 82.2278 23.8132 80.2866L21.8988 80.8654ZM24.9819 86.5608C26.3873 88.1743 28.1499 89.4134 30.249 90.2837L31.015 88.4363C29.1781 87.6746 27.6767 86.6097 26.4901 85.2472L24.9819 86.5608ZM30.2685 90.2916C32.3791 91.1152 34.8361 91.512 37.616 91.512V89.512C35.0199 89.512 32.8209 89.1407 30.9955 88.4284L30.2685 90.2916ZM34.3642 43.3534C37.5972 42.1526 41.2211 41.544 45.248 41.544V39.544C41.0189 39.544 37.1548 40.1834 33.6678 41.4786L34.3642 43.3534ZM45.248 41.544C48.9281 41.544 52.5642 42.1492 56.1601 43.3634L56.7999 41.4686C53.0038 40.1868 49.1519 39.544 45.248 39.544V41.544ZM56.1601 43.3634C59.7294 44.5686 62.9248 46.421 65.7532 48.9248L67.0788 47.4272C64.0512 44.747 60.6227 42.7593 56.7999 41.4686L56.1601 43.3634ZM65.7532 48.9248C68.5625 51.4117 70.8341 54.5785 72.5586 58.4472L74.3854 57.6328C72.558 53.5335 70.1255 50.1243 67.0788 47.4272L65.7532 48.9248ZM72.5647 58.4605C74.3148 62.2371 75.208 66.7433 75.208 72.008H77.208C77.208 66.5206 76.2772 61.7149 74.3793 57.6195L72.5647 58.4605ZM75.208 72.008C75.208 76.7763 74.3205 81.3023 72.5477 85.5942L74.3963 86.3578C76.2715 81.8177 77.208 77.0317 77.208 72.008H75.208ZM72.5492 85.5907C70.7762 89.8366 68.2591 93.5654 64.994 96.7838L66.398 98.2082C69.8529 94.8026 72.5198 90.8514 74.3948 86.3613L72.5492 85.5907ZM64.9941 96.7838C61.7834 99.9479 57.8884 102.471 53.2941 104.346L54.0499 106.198C58.8636 104.233 62.9846 101.572 66.3979 98.2083L64.9941 96.7838ZM53.2941 104.346C48.7241 106.211 43.6465 107.152 38.048 107.152V109.152C43.8735 109.152 49.2119 108.173 54.0499 106.198L53.2941 104.346ZM38.048 107.152C32.2958 107.152 27.1665 106.256 22.6448 104.485L21.9152 106.347C26.7055 108.224 32.0882 109.152 38.048 109.152V107.152ZM22.653 104.488C18.1142 102.663 14.2725 100.145 11.1122 96.9381L9.68775 98.3419C13.0555 101.759 17.1338 104.425 21.907 106.344L22.653 104.488ZM11.1174 96.9434C8.00366 93.7366 5.60319 89.8965 3.92033 85.4089L2.04767 86.1111C3.82081 90.8395 6.36434 94.9194 9.68257 98.3366L11.1174 96.9434ZM3.92351 85.4175C2.28822 80.9321 1.464 75.9857 1.464 70.568H-0.536C-0.536 76.1903 0.319783 81.3719 2.04449 86.1025L3.92351 85.4175ZM1.464 70.568C1.464 60.5191 5.34058 50.2362 13.2169 39.7028L11.6151 38.5052C3.55542 49.2838 -0.536 59.9769 -0.536 70.568H1.464ZM13.2197 39.6991L36.8357 7.80305L35.2283 6.61294L11.6123 38.5089L13.2197 39.6991ZM36.8155 7.82939C37.8037 6.58338 39.2551 5.46753 41.2228 4.50656L40.3452 2.70942C38.1849 3.76445 36.4683 5.04861 35.2485 6.5866L36.8155 7.82939ZM41.2147 4.51048C43.1736 3.57558 45.4229 3.096 47.984 3.096V1.096C45.1691 1.096 42.6184 1.62441 40.3533 2.70551L41.2147 4.51048ZM47.984 3.096H67.856V1.096H47.984V3.096ZM67.0892 1.45406L35.9852 38.6061L37.5188 39.8899L68.6228 2.73793L67.0892 1.45406ZM35.9952 38.5944L33.2592 41.7624L34.7728 43.0696L37.5088 39.9016L35.9952 38.5944ZM90.1872 32.048L89.1979 31.9028L89.0568 32.8636L90.0131 33.0327L90.1872 32.048ZM94.5792 18.368L93.7096 17.8741L93.7051 17.8824L94.5792 18.368ZM102.715 8.64799L102.093 7.86486L102.088 7.8694L102.715 8.64799ZM113.875 2.88799L114.162 3.84618L114.172 3.84306L113.875 2.88799ZM141.163 3.176L140.817 4.1142L140.827 4.11774L141.163 3.176ZM151.387 9.08L150.72 9.82457L151.387 9.08ZM157.723 17.792L156.806 18.1907L156.808 18.1956L157.723 17.792ZM158.875 36.944L159.841 37.204L159.842 37.1994L158.875 36.944ZM155.851 43.496L155.039 42.9128L155.036 42.9168L155.851 43.496ZM150.955 48.176L151.5 49.0145L151.505 49.0112L150.955 48.176ZM144.331 51.344L144.004 50.399L141.294 51.3371L144 52.2875L144.331 51.344ZM158.731 89.648L159.63 90.0868V90.0868L158.731 89.648ZM150.595 99.944L149.969 99.1642L149.964 99.1686L150.595 99.944ZM138.859 106.136L139.148 107.094L139.157 107.091L138.859 106.136ZM111.571 106.568L111.298 107.53L111.309 107.533L111.571 106.568ZM101.203 101.528L100.597 102.323L100.605 102.33L101.203 101.528ZM93.2113 92.744L92.3671 93.2802L92.3723 93.2882L93.2113 92.744ZM87.3073 80.072L86.9312 79.1454L86.0542 79.5013L86.3614 80.3966L87.3073 80.072ZM97.2432 76.04L96.8808 75.108L96.874 75.1106L96.8672 75.1134L97.2432 76.04ZM104.443 75.248L104.231 76.2252L104.443 75.248ZM109.195 78.56L110.074 78.0834L110.069 78.0744L109.195 78.56ZM116.035 87.272L115.43 88.0682L115.439 88.0749L115.448 88.0814L116.035 87.272ZM131.083 88.712L131.492 89.6249L131.502 89.62L131.083 88.712ZM135.691 85.472L134.958 84.7915L134.957 84.7926L135.691 85.472ZM138.499 80.936L139.437 81.2842L138.499 80.936ZM138.931 69.776L137.943 69.932L137.946 69.947L137.949 69.9619L138.931 69.776ZM136.339 65.096L135.67 65.8393L136.339 65.096ZM129.787 62.144L129.545 63.1141L129.554 63.1165L129.564 63.1187L129.787 62.144ZM117.691 61.064H116.691V62.064H117.691V61.064ZM117.691 45.656V44.656H116.691V45.656H117.691ZM134.467 41.912L135.092 42.6929L135.095 42.6904L134.467 41.912ZM135.115 22.544L134.362 23.2014L134.369 23.2099L134.377 23.2183L135.115 22.544ZM117.619 21.824L118.227 22.6179L118.23 22.616L117.619 21.824ZM112.939 28.304L113.873 28.6607L113.881 28.6406L113.888 28.6202L112.939 28.304ZM108.979 33.56L108.511 32.6762L108.979 33.56ZM101.995 34.136L101.821 35.1207L101.83 35.1223L101.838 35.1236L101.995 34.136ZM91.1767 32.1932C91.9303 27.0587 93.362 22.6182 95.4534 18.8536L93.7051 17.8824C91.4765 21.8938 89.9802 26.5733 89.1979 31.9028L91.1767 32.1932ZM95.4488 18.8618C97.5999 15.074 100.232 11.9334 103.343 9.42659L102.088 7.8694C98.7661 10.5466 95.9746 13.8859 93.7097 17.8742L95.4488 18.8618ZM103.337 9.43111C106.497 6.92187 110.102 5.05936 114.162 3.84612L113.589 1.92986C109.297 3.21262 105.462 5.19012 102.093 7.86488L103.337 9.43111ZM114.172 3.84306C118.243 2.57961 122.63 1.944 127.339 1.944V-0.0560036C122.449 -0.0560036 117.86 0.604385 113.579 1.93293L114.172 3.84306ZM127.339 1.944C132.429 1.944 136.916 2.67452 140.817 4.11415L141.509 2.23785C137.346 0.701473 132.618 -0.0560036 127.339 -0.0560036V1.944ZM140.827 4.11774C144.754 5.52039 148.045 7.42678 150.72 9.82457L152.055 8.33543C149.161 5.74121 145.636 3.7116 141.5 2.23426L140.827 4.11774ZM150.72 9.82457C153.401 12.228 155.426 15.0153 156.806 18.1907L158.64 17.3933C157.141 13.9447 154.942 10.9239 152.055 8.33543L150.72 9.82457ZM156.808 18.1956C158.191 21.3296 158.883 24.6478 158.883 28.16H160.883C160.883 24.3762 160.136 20.7824 158.638 17.3884L156.808 18.1956ZM158.883 28.16C158.883 31.4069 158.554 34.2462 157.908 36.6886L159.842 37.1994C160.541 34.5538 160.883 31.5371 160.883 28.16H158.883ZM157.91 36.684C157.265 39.078 156.305 41.1496 155.039 42.9128L156.664 44.0792C158.086 42.0984 159.141 39.802 159.841 37.204L157.91 36.684ZM155.036 42.9168C153.816 44.6345 152.275 46.1093 150.405 47.3408L151.505 49.0112C153.571 47.6507 155.295 46.0055 156.666 44.0752L155.036 42.9168ZM150.41 47.3376C148.568 48.5352 146.435 49.5576 144.004 50.399L144.658 52.289C147.22 51.4024 149.503 50.3128 151.5 49.0144L150.41 47.3376ZM144 52.2875C149.666 54.2777 153.835 57.1749 156.593 60.9354C159.348 64.6921 160.755 69.3936 160.755 75.104H162.755C162.755 69.0544 161.259 63.9159 158.206 59.7526C155.155 55.5931 150.612 52.4903 144.663 50.4005L144 52.2875ZM160.755 75.104C160.755 80.5517 159.769 85.2438 157.833 89.2092L159.63 90.0868C161.725 85.7962 162.755 80.7923 162.755 75.104H160.755ZM157.833 89.2092C155.878 93.2118 153.257 96.5251 149.969 99.1642L151.221 100.724C154.75 97.8909 157.553 94.3402 159.63 90.0868L157.833 89.2092ZM149.964 99.1686C146.71 101.818 142.914 103.824 138.562 105.181L139.157 107.091C143.733 105.664 147.76 103.542 151.227 100.719L149.964 99.1686ZM138.571 105.178C134.204 106.493 129.646 107.152 124.891 107.152V109.152C129.833 109.152 134.586 108.467 139.148 107.094L138.571 105.178ZM124.891 107.152C119.968 107.152 115.618 106.631 111.833 105.603L111.309 107.533C115.3 108.617 119.831 109.152 124.891 109.152V107.152ZM111.844 105.606C108.065 104.533 104.721 102.905 101.801 100.726L100.605 102.33C103.734 104.663 107.301 106.395 111.298 107.53L111.844 105.606ZM101.809 100.733C98.8866 98.5058 96.2987 95.6662 94.0502 92.1998L92.3723 93.2882C94.7318 96.9258 97.4719 99.9422 100.597 102.323L101.809 100.733ZM94.0554 92.2079C91.8498 88.7353 89.9132 84.5854 88.2531 79.7474L86.3614 80.3966C88.0613 85.3505 90.0607 89.6487 92.3671 93.2801L94.0554 92.2079ZM87.6833 80.9986L97.6193 76.9666L96.8672 75.1134L86.9312 79.1454L87.6833 80.9986ZM97.6057 76.972C100.057 76.0187 102.255 75.7956 104.231 76.2252L104.656 74.2708C102.216 73.7404 99.6133 74.0453 96.8808 75.108L97.6057 76.972ZM104.231 76.2252C106.202 76.6538 107.521 77.6063 108.321 79.0456L110.069 78.0744C108.949 76.0577 107.1 74.8022 104.656 74.2708L104.231 76.2252ZM108.316 79.0366C110.513 83.0883 112.875 86.1262 115.43 88.0682L116.64 86.4758C114.396 84.7698 112.198 81.9997 110.074 78.0834L108.316 79.0366ZM115.448 88.0814C118.081 89.9913 121.146 90.936 124.603 90.936V88.936C121.533 88.936 118.886 88.1047 116.622 86.4626L115.448 88.0814ZM124.603 90.936C127.206 90.936 129.511 90.5107 131.492 89.6248L130.675 87.7992C129.007 88.5453 126.993 88.936 124.603 88.936V90.936ZM131.502 89.62C133.474 88.7102 135.122 87.5581 136.425 86.1514L134.957 84.7926C133.86 85.9779 132.437 86.9858 130.664 87.804L131.502 89.62ZM136.424 86.1525C137.759 84.7145 138.766 83.0902 139.437 81.2842L137.562 80.5878C136.985 82.1418 136.119 83.5415 134.958 84.7915L136.424 86.1525ZM139.437 81.2842C140.101 79.497 140.435 77.6753 140.435 75.824H138.435C138.435 77.4287 138.146 79.015 137.562 80.5878L139.437 81.2842ZM140.435 75.824C140.435 73.5202 140.264 71.4403 139.914 69.5901L137.949 69.9619C138.271 71.6637 138.435 73.6157 138.435 75.824H140.435ZM139.919 69.62C139.593 67.5578 138.61 65.794 137.008 64.3527L135.67 65.8393C136.949 66.99 137.693 68.3462 137.943 69.932L139.919 69.62ZM137.008 64.3527C135.391 62.8971 133.022 61.8603 130.011 61.1693L129.564 63.1187C132.409 63.7717 134.408 64.7029 135.67 65.8393L137.008 64.3527ZM130.03 61.1739C127.033 60.4246 122.906 60.064 117.691 60.064V62.064C122.845 62.064 126.782 62.4234 129.545 63.1141L130.03 61.1739ZM118.691 61.064V45.656H116.691V61.064H118.691ZM117.691 46.656C122.1 46.656 125.719 46.3179 128.518 45.6181L128.033 43.6779C125.456 44.3221 122.019 44.656 117.691 44.656V46.656ZM128.518 45.6181C131.282 44.9272 133.498 43.9683 135.092 42.6929L133.843 41.1311C132.557 42.1597 130.645 43.0248 128.033 43.6779L128.518 45.6181ZM135.095 42.6904C136.728 41.3737 137.839 39.7637 138.381 37.8667L136.458 37.3173C136.04 38.7803 135.183 40.0503 133.839 41.1336L135.095 42.6904ZM138.381 37.8667C138.89 36.0849 139.139 34.143 139.139 32.048H137.139C137.139 33.985 136.909 35.7391 136.458 37.3173L138.381 37.8667ZM139.139 32.048C139.139 27.7661 138.093 24.3221 135.854 21.8697L134.377 23.2183C136.17 25.1819 137.139 28.0739 137.139 32.048H139.139ZM135.869 21.8866C133.649 19.3419 130.302 18.16 126.043 18.16V20.16C129.944 20.16 132.646 21.234 134.362 23.2014L135.869 21.8866ZM126.043 18.16C122.542 18.16 119.512 19.1028 117.009 21.032L118.23 22.616C120.335 20.9932 122.92 20.16 126.043 20.16V18.16ZM117.011 21.0301C114.603 22.8745 112.92 25.1982 111.991 27.9878L113.888 28.6202C114.686 26.2258 116.123 24.2295 118.227 22.6179L117.011 21.0301ZM112.005 27.9473C111.039 30.4764 109.841 31.9725 108.511 32.6762L109.447 34.4438C111.382 33.4195 112.823 31.4116 113.873 28.6607L112.005 27.9473ZM108.511 32.6762C107.161 33.3914 105.091 33.6148 102.152 33.1484L101.838 35.1236C104.948 35.6172 107.534 35.4566 109.447 34.4438L108.511 32.6762ZM102.169 33.1513L90.3614 31.0633L90.0131 33.0327L101.821 35.1207L102.169 33.1513ZM224.767 38.024L225.682 38.4263L224.767 38.024ZM219.223 46.232L219.922 46.9465L219.93 46.9391L219.223 46.232ZM211.159 51.488L210.782 50.5615L210.777 50.5636L211.159 51.488ZM191.574 51.488L191.193 52.4124L191.198 52.4145L191.574 51.488ZM183.654 46.232L182.933 46.9239L182.94 46.9316L182.947 46.9391L183.654 46.232ZM178.471 38.024L179.401 37.6575L178.471 38.024ZM178.471 16.712L179.403 17.0738L179.405 17.0691L178.471 16.712ZM183.654 8.35999L182.94 7.66032L182.933 7.66809L183.654 8.35999ZM191.574 3.03199L191.956 3.95639L191.963 3.95335L191.574 3.03199ZM211.734 3.03199L211.346 3.95335L211.354 3.95699L211.363 3.96047L211.734 3.03199ZM219.727 8.35999L219.004 9.05194L219.012 9.05962L219.727 8.35999ZM224.982 16.712L224.048 17.0691L224.05 17.0738L224.982 16.712ZM209.07 21.464L208.097 21.693L208.101 21.7101L208.106 21.7271L209.07 21.464ZM207.415 17.576L208.215 16.976L207.415 17.576ZM204.822 15.56L204.451 16.4885L204.459 16.4915L204.467 16.4945L204.822 15.56ZM198.486 15.56L198.115 14.6315L198.486 15.56ZM196.038 17.576L195.219 17.0025V17.0025L196.038 17.576ZM194.454 21.464L195.426 21.6996L195.428 21.693L194.454 21.464ZM194.454 33.272L195.425 33.0295V33.0295L194.454 33.272ZM196.038 36.944L196.844 36.3508L196.038 36.944ZM198.486 38.888L198.115 39.8165L198.486 38.888ZM204.822 38.888L204.467 37.9535L204.459 37.9565L204.451 37.9595L204.822 38.888ZM207.415 36.944L206.63 36.3243V36.3244L207.415 36.944ZM209.07 33.272L208.108 33.0013L208.104 33.0153L208.1 33.0295L209.07 33.272ZM259.831 5.408L259.081 4.74638L259.06 4.76952L259.041 4.79387L259.831 5.408ZM262.495 3.176L263.031 4.01966L263.045 4.01115L263.058 4.00223L262.495 3.176ZM283.159 2.096L283.948 2.70959L285.202 1.096H283.159V2.096ZM204.102 103.832L204.887 104.452L204.892 104.446L204.102 103.832ZM201.367 106.136L201.845 107.014L201.852 107.01L201.859 107.007L201.367 106.136ZM180.775 107L179.985 106.386L178.729 108H180.775V107ZM285.103 92.96L286.018 93.3623L286.02 93.3572L285.103 92.96ZM279.559 101.168L280.258 101.883L280.266 101.875L279.559 101.168ZM271.495 106.424L271.118 105.498L271.113 105.5L271.495 106.424ZM251.911 106.424L251.529 107.348L251.534 107.35L251.911 106.424ZM243.991 101.168L243.269 101.86L243.276 101.868L243.283 101.875L243.991 101.168ZM238.807 92.96L237.874 93.3218L237.876 93.3265L238.807 92.96ZM238.807 71.576L239.739 71.9378L239.741 71.9331L238.807 71.576ZM243.991 63.224L243.276 62.5243L243.269 62.5321L243.991 63.224ZM251.911 57.896L252.292 58.8204L252.299 58.8174L251.911 57.896ZM272.07 57.896L271.682 58.8174L271.69 58.821L271.699 58.8245L272.07 57.896ZM280.062 63.224L279.34 63.9159L279.348 63.9236L280.062 63.224ZM285.319 71.576L284.384 71.9331L284.386 71.9378L285.319 71.576ZM269.406 76.4L268.433 76.629L268.437 76.6462L268.442 76.6631L269.406 76.4ZM267.751 72.512L268.551 71.912L267.751 72.512ZM265.159 70.496L264.787 71.4245L264.795 71.4275L264.803 71.4305L265.159 70.496ZM256.375 72.512L255.555 71.9385V71.9385L256.375 72.512ZM254.79 76.4L255.762 76.6356L255.764 76.629L254.79 76.4ZM254.79 88.136L255.761 87.8935L254.79 88.136ZM256.375 91.808L255.569 92.4012H255.569L256.375 91.808ZM258.823 93.752L259.194 92.8235L258.823 93.752ZM265.159 93.752L264.803 92.8175L264.795 92.8204L264.787 92.8235L265.159 93.752ZM267.751 91.808L268.535 92.4276L267.751 91.808ZM269.406 88.136L268.444 87.8653L268.44 87.8793L268.436 87.8935L269.406 88.136ZM225.855 27.512C225.855 31.2288 225.181 34.5938 223.851 37.6217L225.682 38.4263C227.136 35.1182 227.855 31.4752 227.855 27.512H225.855ZM223.851 37.6217C222.506 40.6832 220.726 43.314 218.515 45.5249L219.93 46.9391C222.327 44.542 224.243 41.7008 225.682 38.4263L223.851 37.6217ZM218.523 45.5175C216.314 47.6799 213.737 49.3611 210.782 50.5615L211.535 52.4145C214.724 51.1189 217.523 49.2961 219.922 46.9465L218.523 45.5175ZM210.777 50.5636C207.876 51.7611 204.837 52.36 201.654 52.36V54.36C205.096 54.36 208.393 53.7109 211.54 52.4124L210.777 50.5636ZM201.654 52.36C198.123 52.36 194.892 51.7563 191.951 50.5615L191.198 52.4145C194.401 53.7157 197.89 54.36 201.654 54.36V52.36ZM191.956 50.5636C189.051 49.3646 186.522 47.6853 184.362 45.5249L182.947 46.9391C185.299 49.2907 188.05 51.1154 191.193 52.4124L191.956 50.5636ZM184.376 45.5401C182.264 43.3361 180.604 40.7127 179.401 37.6575L177.54 38.3905C178.833 41.6713 180.629 44.5199 182.933 46.9239L184.376 45.5401ZM179.401 37.6575C178.204 34.6202 177.598 31.2425 177.598 27.512H175.598C175.598 31.4615 176.241 35.0918 177.54 38.3905L179.401 37.6575ZM177.598 27.512C177.598 23.6328 178.206 20.158 179.403 17.0738L177.538 16.3502C176.239 19.698 175.598 23.4232 175.598 27.512H177.598ZM179.405 17.0691C180.609 13.9178 182.269 11.2508 184.376 9.0519L182.933 7.66809C180.624 10.0772 178.828 12.9782 177.536 16.3549L179.405 17.0691ZM184.369 9.05962C186.529 6.85372 189.055 5.15352 191.956 3.95636L191.193 2.10762C188.046 3.40646 185.292 5.25826 182.94 7.66037L184.369 9.05962ZM191.963 3.95335C194.901 2.71395 198.127 2.08799 201.654 2.08799V0.0879936C197.886 0.0879936 194.392 0.75803 191.186 2.11063L191.963 3.95335ZM201.654 2.08799C205.182 2.08799 208.408 2.71395 211.346 3.95335L212.123 2.11063C208.917 0.75803 205.423 0.0879936 201.654 0.0879936V2.08799ZM211.363 3.96047C214.358 5.15838 216.9 6.85628 219.005 9.0519L220.448 7.66809C218.137 5.2557 215.351 3.40161 212.106 2.10352L211.363 3.96047ZM219.012 9.05962C221.164 11.2578 222.845 13.9223 224.048 17.0691L225.917 16.3549C224.624 12.9737 222.801 10.0702 220.441 7.66037L219.012 9.05962ZM224.05 17.0738C225.247 20.158 225.855 23.6328 225.855 27.512H227.855C227.855 23.4232 227.214 19.698 225.915 16.3502L224.05 17.0738ZM210.719 27.512C210.719 25.0141 210.499 22.9015 210.035 21.2009L208.106 21.7271C208.506 23.1945 208.719 25.1139 208.719 27.512H210.719ZM210.044 21.235C209.64 19.5184 209.043 18.081 208.215 16.976L206.615 18.176C207.226 18.991 207.733 20.1456 208.097 21.693L210.044 21.235ZM208.215 16.976C207.394 15.8823 206.383 15.0842 205.178 14.6255L204.467 16.4945C205.278 16.8038 205.995 17.3497 206.615 18.176L208.215 16.976ZM205.194 14.6315C204.103 14.1952 202.919 13.984 201.654 13.984V15.984C202.694 15.984 203.622 16.1568 204.451 16.4885L205.194 14.6315ZM201.654 13.984C200.39 13.984 199.206 14.1952 198.115 14.6315L198.858 16.4885C199.687 16.1568 200.615 15.984 201.654 15.984V13.984ZM198.115 14.6315C196.951 15.0971 195.988 15.9051 195.219 17.0025L196.858 18.1495C197.434 17.3269 198.102 16.7909 198.858 16.4885L198.115 14.6315ZM195.219 17.0025C194.45 18.101 193.883 19.5284 193.481 21.235L195.428 21.693C195.794 20.1356 196.283 18.971 196.858 18.1495L195.219 17.0025ZM193.483 21.2284C193.073 22.9177 192.878 25.02 192.878 27.512H194.878C194.878 25.108 195.068 23.1783 195.426 21.6996L193.483 21.2284ZM192.878 27.512C192.878 29.8643 193.074 31.8722 193.484 33.5145L195.425 33.0295C195.067 31.5998 194.878 29.7677 194.878 27.512H192.878ZM193.484 33.5145C193.888 35.1303 194.46 36.4873 195.233 37.5372L196.844 36.3508C196.273 35.5767 195.789 34.4857 195.425 33.0295L193.484 33.5145ZM195.233 37.5372C196.005 38.5843 196.966 39.3567 198.115 39.8165L198.858 37.9595C198.087 37.6512 197.416 37.1277 196.844 36.3508L195.233 37.5372ZM198.115 39.8165C199.206 40.2528 200.39 40.464 201.654 40.464V38.464C200.615 38.464 199.687 38.2912 198.858 37.9595L198.115 39.8165ZM201.654 40.464C202.919 40.464 204.103 40.2528 205.194 39.8165L204.451 37.9595C203.622 38.2912 202.694 38.464 201.654 38.464V40.464ZM205.178 39.8225C206.368 39.3692 207.376 38.606 208.199 37.5636L206.63 36.3244C206.013 37.1059 205.293 37.6388 204.467 37.9535L205.178 39.8225ZM208.199 37.5636C209.033 36.5079 209.634 35.141 210.041 33.5145L208.1 33.0295C207.739 34.475 207.236 35.5561 206.63 36.3243L208.199 37.5636ZM210.033 33.5427C210.498 31.8891 210.719 29.8708 210.719 27.512H208.719C208.719 29.7612 208.507 31.5829 208.108 33.0013L210.033 33.5427ZM260.58 6.06962C261.23 5.33362 262.043 4.64866 263.031 4.01966L261.958 2.33234C260.834 3.04733 259.871 3.85037 259.081 4.74638L260.58 6.06962ZM263.058 4.00223C263.887 3.43678 265.127 3.096 266.887 3.096V1.096C264.902 1.096 263.214 1.47522 261.931 2.34977L263.058 4.00223ZM266.887 3.096H283.159V1.096H266.887V3.096ZM282.369 1.48241L203.313 103.218L204.892 104.446L283.948 2.70959L282.369 1.48241ZM203.318 103.212C202.685 104.014 201.876 104.699 200.874 105.265L201.859 107.007C203.065 106.325 204.08 105.474 204.887 104.452L203.318 103.212ZM200.888 105.258C200.014 105.735 198.892 106 197.479 106V108C199.137 108 200.607 107.689 201.845 107.014L200.888 105.258ZM197.479 106H180.775V108H197.479V106ZM181.564 107.614L260.62 6.02213L259.041 4.79387L179.985 106.386L181.564 107.614ZM286.19 82.376C286.19 86.0925 285.518 89.4837 284.185 92.5628L286.02 93.3572C287.471 90.0043 288.19 86.3395 288.19 82.376H286.19ZM284.187 92.5577C282.842 95.6192 281.062 98.25 278.851 100.461L280.266 101.875C282.663 99.478 284.579 96.6368 286.018 93.3623L284.187 92.5577ZM278.859 100.453C276.65 102.616 274.073 104.297 271.118 105.498L271.871 107.35C275.06 106.055 277.859 104.232 280.258 101.883L278.859 100.453ZM271.113 105.5C268.212 106.697 265.173 107.296 261.991 107.296V109.296C265.432 109.296 268.729 108.647 271.876 107.348L271.113 105.5ZM261.991 107.296C258.459 107.296 255.228 106.692 252.287 105.498L251.534 107.35C254.737 108.652 258.226 109.296 261.991 109.296V107.296ZM252.292 105.5C249.387 104.301 246.858 102.621 244.698 100.461L243.283 101.875C245.635 104.227 248.386 106.051 251.529 107.348L252.292 105.5ZM244.712 100.476C242.6 98.2721 240.94 95.6487 239.737 92.5935L237.876 93.3265C239.169 96.6073 240.965 99.4559 243.269 101.86L244.712 100.476ZM239.739 92.5982C238.54 89.5099 237.934 86.1062 237.934 82.376H235.934C235.934 86.3258 236.577 89.9781 237.874 93.3218L239.739 92.5982ZM237.934 82.376C237.934 78.4968 238.542 75.022 239.739 71.9378L237.874 71.2142C236.575 74.562 235.934 78.2872 235.934 82.376H237.934ZM239.741 71.9331C240.945 68.7818 242.605 66.1148 244.712 63.9159L243.269 62.5321C240.96 64.9412 239.164 67.8422 237.872 71.2189L239.741 71.9331ZM244.705 63.9236C246.865 61.7177 249.391 60.0175 252.292 58.8204L251.529 56.9716C248.382 58.2705 245.628 60.1223 243.276 62.5244L244.705 63.9236ZM252.299 58.8174C255.237 57.578 258.463 56.952 261.991 56.952V54.952C258.222 54.952 254.728 55.622 251.522 56.9746L252.299 58.8174ZM261.991 56.952C265.518 56.952 268.744 57.578 271.682 58.8174L272.459 56.9746C269.253 55.622 265.759 54.952 261.991 54.952V56.952ZM271.699 58.8245C274.694 60.0224 277.236 61.7203 279.341 63.9159L280.784 62.5321C278.473 60.1197 275.687 58.2656 272.442 56.9675L271.699 58.8245ZM279.348 63.9236C281.5 66.1217 283.181 68.7863 284.384 71.9331L286.253 71.2189C284.96 67.8377 283.137 64.9342 280.777 62.5244L279.348 63.9236ZM284.386 71.9378C285.583 75.022 286.19 78.4968 286.19 82.376H288.19C288.19 78.2872 287.55 74.562 286.251 71.2142L284.386 71.9378ZM271.055 82.376C271.055 79.9241 270.835 77.8362 270.371 76.1369L268.442 76.6631C268.842 78.1318 269.055 80.0279 269.055 82.376H271.055ZM270.38 76.171C269.976 74.4544 269.379 73.017 268.551 71.912L266.951 73.112C267.562 73.927 268.069 75.0816 268.433 76.629L270.38 76.171ZM268.551 71.912C267.73 70.8183 266.719 70.0202 265.514 69.5615L264.803 71.4305C265.614 71.7398 266.331 72.2857 266.951 73.112L268.551 71.912ZM265.53 69.5675C264.439 69.1312 263.255 68.92 261.991 68.92V70.92C263.03 70.92 263.958 71.0928 264.787 71.4245L265.53 69.5675ZM261.991 68.92C260.726 68.92 259.542 69.1312 258.451 69.5675L259.194 71.4245C260.023 71.0928 260.951 70.92 261.991 70.92V68.92ZM258.451 69.5675C257.287 70.0331 256.324 70.8411 255.555 71.9385L257.194 73.0855C257.77 72.2629 258.438 71.7269 259.194 71.4245L258.451 69.5675ZM255.555 71.9385C254.786 73.037 254.219 74.4644 253.817 76.171L255.764 76.629C256.13 75.0716 256.619 73.907 257.194 73.0855L255.555 71.9385ZM253.819 76.1644C253.409 77.8525 253.215 79.9302 253.215 82.376H255.215C255.215 80.0218 255.404 78.1155 255.762 76.6356L253.819 76.1644ZM253.215 82.376C253.215 84.7283 253.41 86.7362 253.82 88.3785L255.761 87.8935C255.403 86.4638 255.215 84.6317 255.215 82.376H253.215ZM253.82 88.3785C254.224 89.9943 254.796 91.3513 255.569 92.4012L257.18 91.2148C256.609 90.4407 256.125 89.3497 255.761 87.8935L253.82 88.3785ZM255.569 92.4012C256.341 93.4483 257.302 94.2207 258.451 94.6805L259.194 92.8235C258.423 92.5153 257.752 91.9917 257.18 91.2148L255.569 92.4012ZM258.451 94.6805C259.542 95.1168 260.726 95.328 261.991 95.328V93.328C260.951 93.328 260.023 93.1552 259.194 92.8235L258.451 94.6805ZM261.991 95.328C263.255 95.328 264.439 95.1168 265.53 94.6805L264.787 92.8235C263.958 93.1552 263.03 93.328 261.991 93.328V95.328ZM265.514 94.6865C266.704 94.2332 267.712 93.47 268.535 92.4276L266.966 91.1884C266.349 91.9699 265.629 92.5028 264.803 92.8175L265.514 94.6865ZM268.535 92.4276C269.369 91.3719 269.97 90.005 270.377 88.3785L268.436 87.8935C268.075 89.339 267.572 90.4201 266.966 91.1884L268.535 92.4276ZM270.369 88.4067C270.834 86.7531 271.055 84.7347 271.055 82.376H269.055C269.055 84.6253 268.843 86.4469 268.444 87.8653L270.369 88.4067Z" fill="#13353B"/>
</svg>
